<svg width="337" height="96" viewBox="0 0 337 96" fill="none" xmlns="http://www.w3.org/2000/svg">
<path fill-rule="evenodd" clip-rule="evenodd" d="M33.7632 11.5328L28.4736 3.13574H0.124237L5.41383 11.5306L33.7632 11.5328ZM0.124263 45.1101H28.4736L33.7632 36.7152H5.41386L0.124263 45.1101ZM10.7034 19.9258H39.0528L41.6965 24.1243L39.0528 28.3229H10.7034L13.3472 24.1243L10.7034 19.9258Z" fill="#F73F39"/>
<path d="M180.837 81.3262H177.064V88.1858H180.837V81.3262Z" fill="black"/>
<path d="M191.273 63.6873C189.248 62.6093 187.843 62.4297 184.528 62.4297H177.064V78.0435H184.495C187.451 78.0435 189.656 77.8639 191.6 76.5736C193.723 75.169 194.817 72.8335 194.817 70.1386C194.817 67.2151 193.462 64.8796 191.273 63.6873ZM185.361 74.777H180.837V65.7778L185.099 65.7452C188.986 65.6962 190.93 67.0681 190.93 70.1713C190.93 73.5031 188.529 74.777 185.361 74.777Z" fill="black"/>
<path d="M332.304 69.2722L328.711 79.4637C328.057 81.2929 327.731 82.3382 327.126 84.1021H327.061C326.587 82.5832 326.146 81.3582 325.542 79.5617L322.063 69.2559H317.882L325.118 88.1689C324.954 88.5772 324.791 89.0018 324.611 89.4428C324.007 90.9127 322.57 91.8763 320.985 91.8763H319.189V95.0938H321.034C324.023 95.0938 326.718 93.2646 327.829 90.4881C330.132 84.7227 334.051 74.9069 336.289 69.2722H332.304Z" fill="black"/>
<path d="M231.974 84.5447C231.974 91.388 228.838 95.0954 222.501 95.0954C217.781 95.0954 214.939 92.6129 213.926 88.8728H217.748C218.401 90.604 219.773 92.1556 222.566 92.1556C226.894 92.1556 228.429 89.4607 228.429 84.3323C228.397 84.3323 228.397 84.2997 228.364 84.2997C227.433 85.9166 225.343 87.3538 222.027 87.3538C216.703 87.3538 213.322 83.4994 213.322 78.0933C213.322 72.475 216.997 68.7021 222.076 68.7021C225.359 68.7021 227.335 70.1067 228.413 71.6583C228.38 71.2663 228.38 70.8744 228.38 70.4661V69.2738H231.974V84.5447ZM217.274 78.0607C217.274 81.7355 219.332 84.365 222.86 84.365C226.029 84.365 228.478 82.1274 228.478 77.9627C228.478 74.2552 226.323 71.7727 222.86 71.7727C219.398 71.7727 217.274 74.2389 217.274 78.0607Z" fill="black"/>
<path d="M237.935 79.6771C238.082 82.9926 240.205 85.6222 243.88 85.6222C246.477 85.6222 247.734 84.3972 248.698 82.7803H252.34C251.262 86.1938 248.273 88.6437 243.733 88.6437C237.902 88.6437 234.26 84.7239 234.26 78.8115C234.26 72.8992 238.033 68.7344 243.733 68.7344C249.89 68.7344 252.732 73.4218 252.732 78.5012V79.6935L237.935 79.6771ZM248.943 76.8026C248.616 73.8138 246.738 71.6906 243.651 71.6906C240.695 71.6906 238.425 73.6341 238.066 76.8026H248.943Z" fill="black"/>
<path d="M258.563 69.2725V71.6897C259.167 69.9258 261.013 68.7988 263.136 68.7988C263.446 68.7988 263.757 68.8152 264.067 68.8642V72.1797C263.642 72.098 263.234 72.0653 262.809 72.0653C259.379 72.0653 258.743 74.5805 258.743 78.3697V88.1692H255.1V72.6533C255.1 71.461 255.1 70.4157 255.068 69.2725H258.563Z" fill="black"/>
<path d="M301.468 85.4743C300.488 87.0912 298.659 88.6428 295.458 88.6428C291.064 88.6428 288.908 85.9479 288.908 81.0482V69.2725H292.534V79.6763C292.534 83.3837 293.759 85.6213 296.715 85.6213C300.603 85.6213 301.288 82.0935 301.288 77.945V69.2725H304.931V85.3273C304.931 86.3072 304.931 87.2382 304.963 88.1691H301.468V85.4743Z" fill="black"/>
<path d="M313.113 69.2722H316.641V72.0814H313.113V83.4325C313.113 85.2291 314.012 85.768 315.416 85.768C315.71 85.768 316.02 85.7354 316.314 85.7027V88.3976C315.857 88.4792 315.383 88.5282 314.91 88.5445C311.562 88.5445 309.438 87.4339 309.438 83.6448V72.0814H306.58V69.2722H309.422V64.1602H313.113V69.2722Z" fill="black"/>
<path d="M266.288 62.4297H272.592C282.032 62.495 286.573 67.1008 286.606 75.365C286.638 82.4043 282.996 88.1044 273.213 88.186H266.288V62.4297ZM270.11 84.9685H272.315C279.158 84.9685 282.735 82.3553 282.735 75.3487C282.718 69.1913 279.174 65.6635 272.674 65.6635C271.416 65.6635 270.11 65.6962 270.11 65.6962V84.9685Z" fill="black"/>
<path d="M208.046 88.1855C207.932 87.4342 207.932 86.9606 207.867 85.5886C206.429 87.6465 204.519 88.5448 201.497 88.5448C197.528 88.5448 194.654 86.6012 194.654 83.0734C194.654 79.0066 198.541 77.6674 203.588 76.9814C204.845 76.8017 206.25 76.6548 207.475 76.5568C207.475 72.8166 205.401 71.6897 203.228 71.6897C201.056 71.6897 199.472 73.2249 199.472 75.2012H195.944C195.944 71.363 198.966 68.7988 203.294 68.7988C207.622 68.7988 210.986 70.5954 210.986 77.5204V81.1952C210.986 84.2657 211.133 86.4869 211.46 88.2181H208.046V88.1855ZM198.574 83.0244C198.574 84.7883 200.011 85.8989 202.314 85.8989C205.695 85.8989 207.507 83.841 207.507 80.1662C207.491 79.8233 207.507 79.4966 207.54 79.1536C201.383 79.7906 198.574 80.3949 198.574 83.0244Z" fill="black"/>
<path fill-rule="evenodd" clip-rule="evenodd" d="M172.141 32.394L140.648 0V45.3468H147.164V15.6201L178.657 47.9322V2.88678H172.141V32.394ZM86.0523 23.1008C87.8088 20.9373 88.6859 18.3519 88.6859 15.3446C88.6859 11.4955 87.2859 8.39777 84.4904 6.05132C81.954 3.94166 77.8341 2.88683 72.1284 2.88683H64.4913V45.349H71.0093V27.968H72.1802L84.5163 45.349H92.4883L79.1174 27.2512C81.9907 26.6484 84.3024 25.2642 86.0523 23.1008ZM71.0093 22.3861V8.91012H73.3275C79.3335 8.91012 82.3365 11.0844 82.3365 15.4285C82.3365 20.0676 79.247 22.3861 73.079 22.3861H71.0093ZM121.965 36.4626C123.179 34.8352 123.784 32.1658 123.784 28.4632V2.88683H130.3V30.2241C130.3 34.6953 128.885 38.3807 126.051 41.2782C122.86 44.5051 118.947 46.1154 114.302 46.1154C109.662 46.1154 105.753 44.5051 102.584 41.2782C99.7495 38.3807 98.3322 34.6953 98.3322 30.2241V2.88683H104.852V28.4632C104.852 32.112 105.457 34.7771 106.667 36.4626C108.475 38.9038 111.018 40.1222 114.302 40.1222C117.601 40.1222 120.159 38.9038 121.965 36.4626ZM205.757 38.4177C207.703 37.7729 209.493 36.7336 211.016 35.3652C214.224 32.487 215.827 28.7391 215.827 24.1194C215.827 19.461 214.243 15.6851 211.072 12.7876C208.22 10.2043 204.014 8.90837 198.459 8.90837H195.521V39.3261H198.457C201.385 39.3261 203.819 39.0248 205.757 38.4177ZM215.715 8.36117C213.513 6.38068 211.063 4.97927 208.361 4.15263C205.842 3.30877 202.413 2.88683 198.068 2.88683H189.005V45.3469H197.954C202.335 45.3469 205.721 44.9529 208.108 44.1629C210.661 43.3771 213.103 41.9736 215.434 39.9565C220.079 35.9245 222.399 30.646 222.399 24.119C222.399 17.6092 220.174 12.3588 215.715 8.36117ZM254.425 45.3469H230.596V2.88683H254.425V8.91227H237.112V19.1118H253.92V25.1351H237.112V39.3257H254.425V45.3469ZM266.284 9.84684C262.646 14.0791 260.827 18.9011 260.827 24.313C260.827 30.3406 263 35.4942 267.345 39.763C271.709 43.9996 276.976 46.1157 283.146 46.1157C287.251 46.1157 291.163 45.0824 294.892 43.0115V35.2832C293.834 36.1637 292.818 36.915 291.859 37.5371C290.898 38.1614 289.973 38.6565 289.076 39.0225C287.471 39.7544 285.525 40.1247 283.23 40.1247C278.793 40.1247 275.044 38.592 271.985 35.533C268.928 32.4675 267.401 28.7089 267.401 24.2528C267.401 19.745 268.928 15.9347 271.985 12.8154C275.025 9.67893 278.765 8.11391 283.202 8.11391C287.231 8.11391 291.127 9.66386 294.892 12.7616V5.17116C291.276 3.0981 287.529 2.06265 283.649 2.06265C276.546 2.06265 270.758 4.65666 266.282 9.84469L266.284 9.84684ZM336.344 2.88851L316.821 22.1079L336.455 45.3442H327.729L312.176 26.4521L310.836 27.7717V45.3442H304.32V2.88421H310.836V19.8282L327.644 2.88851H336.344Z" fill="black"/>
<path d="M158.561 77.4835C158.561 78.4783 158.359 79.3338 157.955 80.05C157.552 80.7663 157.019 81.3167 156.355 81.7014C155.692 82.0727 154.969 82.2584 154.189 82.2584C152.849 82.2584 151.827 81.6881 151.125 80.5474V82.0595H148.997V66.541H151.125V74.4196C151.827 73.2789 152.849 72.7086 154.189 72.7086C154.969 72.7086 155.692 72.9009 156.355 73.2856C157.019 73.657 157.552 74.2008 157.955 74.917C158.359 75.62 158.561 76.4755 158.561 77.4835ZM156.375 77.4835C156.375 76.5683 156.108 75.8587 155.574 75.3547C155.041 74.8374 154.41 74.5788 153.681 74.5788C153.278 74.5788 152.881 74.6915 152.491 74.917C152.1 75.1425 151.775 75.4741 151.515 75.9118C151.255 76.3362 151.125 76.8601 151.125 77.4835C151.125 78.1069 151.255 78.6375 151.515 79.0752C151.775 79.4996 152.1 79.8246 152.491 80.05C152.881 80.2755 153.278 80.3883 153.681 80.3883C154.41 80.3883 155.041 80.1362 155.574 79.6322C156.108 79.1149 156.375 78.3987 156.375 77.4835Z" fill="black"/>
<path d="M168.207 72.9076L162.352 86.4365H160.107L162.469 80.9851L158.838 72.9076H161.259L163.62 78.8563L165.943 72.9076H168.207Z" fill="black"/>
</svg>
